<mxfile host="app.diagrams.net" agent="Mozilla/5.0 (Windows NT 10.0; Win64; x64) AppleWebKit/537.36 (KHTML, like Gecko) Chrome/131.0.0.0 Safari/537.36 Edg/131.0.0.0" version="24.8.9">
  <diagram name="Page-1" id="9e5fD9bpw-h333957Ncg">
    <mxGraphModel dx="3108" dy="1245" grid="1" gridSize="10" guides="1" tooltips="1" connect="1" arrows="1" fold="1" page="1" pageScale="1" pageWidth="850" pageHeight="1100" math="0" shadow="0">
      <root>
        <mxCell id="0" />
        <mxCell id="1" parent="0" />
        <mxCell id="pgB2AxJnIzMJypCjYRnd-40" value="" style="edgeStyle=orthogonalEdgeStyle;rounded=0;orthogonalLoop=1;jettySize=auto;html=1;" edge="1" parent="1" source="pgB2AxJnIzMJypCjYRnd-4" target="pgB2AxJnIzMJypCjYRnd-6">
          <mxGeometry relative="1" as="geometry" />
        </mxCell>
        <mxCell id="pgB2AxJnIzMJypCjYRnd-48" value="" style="edgeStyle=orthogonalEdgeStyle;rounded=0;orthogonalLoop=1;jettySize=auto;html=1;" edge="1" parent="1" source="pgB2AxJnIzMJypCjYRnd-4" target="pgB2AxJnIzMJypCjYRnd-46">
          <mxGeometry relative="1" as="geometry" />
        </mxCell>
        <mxCell id="pgB2AxJnIzMJypCjYRnd-4" value="รันได้หรือไม่" style="rhombus;whiteSpace=wrap;html=1;fontFamily=Sarabun;fontSource=https%3A%2F%2Ffonts.googleapis.com%2Fcss%3Ffamily%3DSarabun;" vertex="1" parent="1">
          <mxGeometry x="-502.50000000000006" y="385" width="116.67" height="70" as="geometry" />
        </mxCell>
        <mxCell id="pgB2AxJnIzMJypCjYRnd-44" style="edgeStyle=orthogonalEdgeStyle;rounded=0;orthogonalLoop=1;jettySize=auto;html=1;entryX=0;entryY=0.5;entryDx=0;entryDy=0;" edge="1" parent="1" source="pgB2AxJnIzMJypCjYRnd-6" target="pgB2AxJnIzMJypCjYRnd-41">
          <mxGeometry relative="1" as="geometry">
            <Array as="points">
              <mxPoint x="-720" y="420" />
              <mxPoint x="-720" y="340" />
            </Array>
          </mxGeometry>
        </mxCell>
        <mxCell id="pgB2AxJnIzMJypCjYRnd-6" value="แก้ให้รันได้" style="rounded=0;whiteSpace=wrap;html=1;" vertex="1" parent="1">
          <mxGeometry x="-690" y="400" width="130" height="40" as="geometry" />
        </mxCell>
        <mxCell id="pgB2AxJnIzMJypCjYRnd-9" value="F" style="text;html=1;align=center;verticalAlign=middle;resizable=0;points=[];autosize=1;strokeColor=none;fillColor=none;" vertex="1" parent="1">
          <mxGeometry x="-519.17" y="385" width="30" height="30" as="geometry" />
        </mxCell>
        <mxCell id="pgB2AxJnIzMJypCjYRnd-19" style="edgeStyle=orthogonalEdgeStyle;rounded=0;orthogonalLoop=1;jettySize=auto;html=1;entryX=0.5;entryY=0;entryDx=0;entryDy=0;" edge="1" parent="1" source="pgB2AxJnIzMJypCjYRnd-13" target="pgB2AxJnIzMJypCjYRnd-17">
          <mxGeometry relative="1" as="geometry" />
        </mxCell>
        <mxCell id="pgB2AxJnIzMJypCjYRnd-13" value="&lt;font data-font-src=&quot;https://fonts.googleapis.com/css?family=Sarabun&quot; face=&quot;Sarabun&quot;&gt;Start&lt;/font&gt;" style="ellipse;whiteSpace=wrap;html=1;" vertex="1" parent="1">
          <mxGeometry x="-509.17" y="20" width="130" height="30" as="geometry" />
        </mxCell>
        <mxCell id="pgB2AxJnIzMJypCjYRnd-38" value="" style="edgeStyle=orthogonalEdgeStyle;rounded=0;orthogonalLoop=1;jettySize=auto;html=1;" edge="1" parent="1" source="pgB2AxJnIzMJypCjYRnd-15" target="pgB2AxJnIzMJypCjYRnd-35">
          <mxGeometry relative="1" as="geometry" />
        </mxCell>
        <mxCell id="pgB2AxJnIzMJypCjYRnd-15" value="เติมตัวดำเนินการ" style="rounded=0;whiteSpace=wrap;html=1;" vertex="1" parent="1">
          <mxGeometry x="-509.17" y="110" width="130" height="40" as="geometry" />
        </mxCell>
        <mxCell id="pgB2AxJnIzMJypCjYRnd-20" value="" style="edgeStyle=orthogonalEdgeStyle;rounded=0;orthogonalLoop=1;jettySize=auto;html=1;" edge="1" parent="1" source="pgB2AxJnIzMJypCjYRnd-17" target="pgB2AxJnIzMJypCjYRnd-15">
          <mxGeometry relative="1" as="geometry" />
        </mxCell>
        <mxCell id="pgB2AxJnIzMJypCjYRnd-17" value="" style="ellipse;whiteSpace=wrap;html=1;aspect=fixed;" vertex="1" parent="1">
          <mxGeometry x="-454.16" y="70" width="20" height="20" as="geometry" />
        </mxCell>
        <mxCell id="pgB2AxJnIzMJypCjYRnd-39" value="" style="edgeStyle=orthogonalEdgeStyle;rounded=0;orthogonalLoop=1;jettySize=auto;html=1;" edge="1" parent="1" source="pgB2AxJnIzMJypCjYRnd-35" target="pgB2AxJnIzMJypCjYRnd-36">
          <mxGeometry relative="1" as="geometry" />
        </mxCell>
        <mxCell id="pgB2AxJnIzMJypCjYRnd-35" value="กำหนดตัวแปร a" style="rounded=0;whiteSpace=wrap;html=1;" vertex="1" parent="1">
          <mxGeometry x="-509" y="170" width="129" height="40" as="geometry" />
        </mxCell>
        <mxCell id="pgB2AxJnIzMJypCjYRnd-42" value="" style="edgeStyle=orthogonalEdgeStyle;rounded=0;orthogonalLoop=1;jettySize=auto;html=1;" edge="1" parent="1" source="pgB2AxJnIzMJypCjYRnd-36" target="pgB2AxJnIzMJypCjYRnd-41">
          <mxGeometry relative="1" as="geometry" />
        </mxCell>
        <mxCell id="pgB2AxJnIzMJypCjYRnd-36" value="กำหนดตัวแปร b" style="rounded=0;whiteSpace=wrap;html=1;" vertex="1" parent="1">
          <mxGeometry x="-508.16999999999996" y="240" width="129" height="40" as="geometry" />
        </mxCell>
        <mxCell id="pgB2AxJnIzMJypCjYRnd-43" value="" style="edgeStyle=orthogonalEdgeStyle;rounded=0;orthogonalLoop=1;jettySize=auto;html=1;" edge="1" parent="1" source="pgB2AxJnIzMJypCjYRnd-41" target="pgB2AxJnIzMJypCjYRnd-4">
          <mxGeometry relative="1" as="geometry" />
        </mxCell>
        <mxCell id="pgB2AxJnIzMJypCjYRnd-41" value="" style="ellipse;whiteSpace=wrap;html=1;aspect=fixed;" vertex="1" parent="1">
          <mxGeometry x="-453.67" y="330" width="20" height="20" as="geometry" />
        </mxCell>
        <mxCell id="pgB2AxJnIzMJypCjYRnd-45" value="T" style="text;html=1;align=center;verticalAlign=middle;resizable=0;points=[];autosize=1;strokeColor=none;fillColor=none;" vertex="1" parent="1">
          <mxGeometry x="-425" y="440" width="30" height="30" as="geometry" />
        </mxCell>
        <mxCell id="pgB2AxJnIzMJypCjYRnd-49" value="" style="edgeStyle=orthogonalEdgeStyle;rounded=0;orthogonalLoop=1;jettySize=auto;html=1;" edge="1" parent="1" source="pgB2AxJnIzMJypCjYRnd-46" target="pgB2AxJnIzMJypCjYRnd-47">
          <mxGeometry relative="1" as="geometry" />
        </mxCell>
        <mxCell id="pgB2AxJnIzMJypCjYRnd-46" value="กรอกค่าตัวแปร a&amp;nbsp;" style="shape=parallelogram;perimeter=parallelogramPerimeter;whiteSpace=wrap;html=1;fixedSize=1;" vertex="1" parent="1">
          <mxGeometry x="-508.67" y="480" width="130" height="40" as="geometry" />
        </mxCell>
        <mxCell id="pgB2AxJnIzMJypCjYRnd-47" value="กรอกค่าตัวแปร b&amp;nbsp;" style="shape=parallelogram;perimeter=parallelogramPerimeter;whiteSpace=wrap;html=1;fixedSize=1;" vertex="1" parent="1">
          <mxGeometry x="-509.5" y="550" width="130" height="40" as="geometry" />
        </mxCell>
      </root>
    </mxGraphModel>
  </diagram>
</mxfile>
